# xmcd CD database file
#
# Track frame offsets:
#	150
#	19460
#	37930
#	62150
#
# Disc length: 1088 seconds
#
# Revision: 0
# Processed by: cddbd v1.5.1PL0 Copyright (c) Steve Scherf et al.
# Submitted via: CDex 1.51
#
DISCID=2e043e04
DTITLE=ガゼット - スペルマルガリィタ -通常盤-
DYEAR=2003
DGENRE=Rock
TTITLE0=LINDA -CANDYDIVE PINKY HEAVEN-
TTITLE1=ブラックスパンコールギャング
TTITLE2=別れ道
TTITLE3=★BEST FRIENDS★
EXTD=YEAR: 2003
EXTT0=
EXTT1=
EXTT2=
EXTT3=
PLAYORDER=
